<svg xmlns="http://www.w3.org/2000/svg" width="42" height="42" viewBox="0 0 42 42">
    <path fill="#010101" fill-rule="nonzero" d="M12.694 28.608c-.217 0-.435-.164-.599-.328a8.36 8.36 0 0 1-.326-2.297c0-3.063 1.579-5.743 4.193-7.33.381-8.422 3.486-14.439 4.412-15.423.163-.11.326-.274.599-.22.218 0 .381.165.435.22.872.93 4.03 7.055 4.412 15.369 2.669 1.477 4.248 4.211 4.248 7.274a8.36 8.36 0 0 1-.327 2.297.524.524 0 0 1-.49.383h-.054c-.218 0-.382-.11-.49-.328-.817-1.86-1.743-3.117-2.887-3.993a1.06 1.06 0 0 1-1.035.93H23.75v2.133c0 .657-.544 1.258-1.252 1.258h-3.05a1.235 1.235 0 0 1-1.253-1.258v-2.133h-.98c-.545 0-.98-.437-1.035-.984-1.362.984-2.342 2.352-2.941 4.047-.109.219-.327.383-.545.383zm9.967-1.367l.055-2.133h-3.432v2.133c0 .054.055.164.164.164h3.05c.054 0 .163-.055.163-.164zm2.179-3.227c-.11-3.118.544-8.478-2.015-15.588-1.199.82-2.451.82-3.758 0-1.907 5.47-2.124 10.228-1.852 15.642l7.625-.054zm4.193 1.75c0-2.407-1.143-4.594-3.05-6.017 0 1.368-.054 1.149-.054 2.954v.11c1.416.874 2.396 2.187 3.104 3.39v-.437zm-8.06-21.44c-.327.492-.926 1.586-1.525 3.117 1.09.766 2.015.711 2.995-.055-.599-1.476-1.143-2.516-1.47-3.062zm-4.956 15.533c-1.961 1.422-3.105 3.61-3.105 6.016v.274c.763-1.368 1.852-2.462 3.16-3.282-.055-1.586-.055-1.914-.055-3.008zm4.956 8.915c.708 0 1.361.219 1.906.766.49.492.762 1.094.762 1.805 0 1.531-1.906 5.086-2.124 5.47a.571.571 0 0 1-.49.273.571.571 0 0 1-.49-.274c-.218-.328-2.124-3.664-2.124-5.415 0-1.422 1.144-2.625 2.56-2.625zm0 6.563c.708-1.422 1.47-3.227 1.525-4.047 0-.383-.164-.766-.436-1.04a1.485 1.485 0 0 0-1.035-.437c-.871 0-1.525.711-1.525 1.532 0 .93.817 2.79 1.47 3.992zm0-25.378c1.089 0 1.906.875 1.906 1.914 0 1.04-.871 1.915-1.906 1.915a1.898 1.898 0 0 1-1.906-1.915c0-1.039.871-1.914 1.906-1.914zm0 2.735a.84.84 0 0 0 .817-.82.84.84 0 0 0-.817-.821.84.84 0 0 0-.817.82c0 .438.381.82.817.82v.548-.547zm0 1.86c1.089 0 1.906.82 1.906 1.914 0 1.039-.871 1.914-1.906 1.914a1.898 1.898 0 0 1-1.906-1.914c0-1.04.871-1.915 1.906-1.915zm0 2.68a.84.84 0 0 0 .817-.82.84.84 0 0 0-.817-.821.84.84 0 0 0-.817.82c0 .438.381.82.817.82v.547-.547zm0 1.86c1.089 0 1.906.874 1.906 1.913 0 1.04-.871 1.915-1.906 1.915a1.898 1.898 0 0 1-1.906-1.915c0-1.039.871-1.914 1.906-1.914zm0 2.68a.804.804 0 0 0 .817-.821.84.84 0 0 0-.817-.82.84.84 0 0 0-.817.82c0 .437.381.82.817.82v.547-.547zm16.175 11.813c1.09.383 1.798 1.422 1.852 2.57A2.853 2.853 0 0 1 36.168 39H5.832A2.819 2.819 0 0 1 3 36.156c0-1.149.708-2.188 1.688-2.68-.054-.328-.109-.602-.109-.875a3.343 3.343 0 0 1 3.323-3.337c1.143 0 2.178.602 2.777 1.532.545-.383 1.144-.547 1.798-.547 1.851 0 3.322 1.531 3.322 3.336v.219c-.055.328-.327.547-.6.547-.272 0-.49-.219-.49-.547v-.11-.054a2.248 2.248 0 0 0-2.232-2.243c-.6 0-1.144.274-1.58.711-.109.165-.327.22-.49.165-.163 0-.327-.165-.381-.329-.327-.875-1.144-1.476-2.07-1.476-1.253 0-2.233 1.039-2.233 2.242 0 .328.11.656.218.985.109.164.054.328 0 .492a.41.41 0 0 1-.381.273 1.71 1.71 0 0 0-1.47 1.696c0 .984.762 1.75 1.579 1.805h30.336c.98 0 1.742-.82 1.742-1.75 0-.82-.599-1.587-1.47-1.696a.41.41 0 0 1-.381-.273.762.762 0 0 1 0-.493c.163-.328.217-.656.217-.984a2.248 2.248 0 0 0-2.233-2.243c-.925 0-1.742.602-2.07 1.477-.054.164-.217.274-.38.328-.164.055-.382-.054-.49-.164a2.034 2.034 0 0 0-1.58-.71c-1.253 0-2.233 1.038-2.233 2.242v.164c.055.328-.163.601-.49.601-.327.055-.6-.164-.6-.492v-.055-.218a3.343 3.343 0 0 1 3.323-3.337c.654 0 1.253.219 1.797.547a3.315 3.315 0 0 1 2.778-1.531c1.852 0 3.322 1.531 3.322 3.336 0 .328-.054.602-.109.875z"/>
</svg>
