<svg xmlns="http://www.w3.org/2000/svg" width="42" height="42" viewBox="0 0 42 42">
    <path fill="#010101" fill-rule="nonzero" d="M24.327 22.255c.109.328-.055.6-.327.71l-11.292 4.308c-.272.11-.6-.054-.709-.327-.109-.273.055-.6.327-.71l11.292-4.308c.272-.109.6.055.709.327zm1.364 3.546c.109.272-.055.6-.328.709l-11.291 4.363c-.273.11-.6-.054-.71-.327-.108-.273 0-.6.328-.764l11.291-4.309c.273-.109.6.055.71.328zm-2.073 4.254c.272-.11.6.054.709.327.109.273-.055.6-.327.71l-8.619 3.272c-.273.109-.6-.055-.709-.327-.11-.273.055-.6.327-.71l8.619-3.272zm8.29-5.89c3.928 0 7.092 3.217 7.092 7.144 0 3.928-3.164 7.146-7.091 7.146a6.994 6.994 0 0 1-6.11-3.546l-10.254 3.927c-1.255.491-2.673-.163-3.164-1.418L5.017 18.11c-.109-.273-.109-.654.055-.927l.927-1.855a6.784 6.784 0 0 1-2.564-3.218c-1.309-3.436.437-7.363 3.873-8.672 3.491-1.31 7.528.382 8.782 4.2l6.873 2.727c.327.109.546.327.655.654l5.29 13.8c.928-.382 1.91-.655 3-.655zM4.473 11.727c.382 1.091 1.09 1.964 2.018 2.619l3.818-7.582c.327-.709 1.146-.982 1.855-.709l2.509.982c-1.31-2.51-4.255-3.655-6.928-2.618a5.686 5.686 0 0 0-3.272 7.308zM15.162 37.8l10.147-3.872c-1.255-3.164-.164-6.71 2.618-8.564L22.636 11.51l.164-.545-.219.49-10.8-4.254c-.218-.109-.382 0-.49.164l-3.82 7.636c1.2.491 2.564.6 3.82.218-.656-1.636.163-3.436 1.745-4.036 1.581-.654 3.327.218 3.927 1.745.6 1.582-.164 3.328-1.746 3.928a3.043 3.043 0 0 1-3.272-.764c-1.691.6-3.382.49-4.964-.218l-.927 1.8v.054l7.363 19.308c.273.71 1.037 1.037 1.746.764zm-1.745-25.635c-1.036.382-1.527 1.527-1.09 2.618.981-.546 1.909-1.636 2.4-2.618a1.807 1.807 0 0 0-1.31 0zm2.237.6c-.6 1.09-1.637 2.236-2.618 2.836.545.382 1.2.436 1.8.218 1.2-.49 1.636-2.018.818-3.054zm16.255 24.599c3.273 0 6-2.727 6-6.055 0-3.327-2.673-6.054-6-6.054-3.328 0-6 2.727-6 6.054 0 3.328 2.672 6.055 6 6.055zm.545-6.873c.873.218 1.582.491 2.019.928.436.327.654.872.654 1.581 0 .655-.273 1.255-.764 1.691-.49.436-1.145.655-1.963.71v.872h-.764V35.4c-1.09-.109-2.073-.545-2.945-1.309l.818-1.036c.654.6 1.363.927 2.073 1.036v-2.236c-.873-.218-1.528-.546-1.964-.873-.436-.382-.655-.873-.655-1.582 0-.709.219-1.254.71-1.69.49-.437 1.145-.655 1.909-.71v-.6h.763v.6a4.802 4.802 0 0 1 2.51.873l-.764 1.091c-.491-.382-1.091-.6-1.691-.709l.054 2.236zm-.818-.218V28.2c-.327.055-.6.164-.818.328a.777.777 0 0 0-.327.654c0 .273.054.491.218.655.163.163.49.272.927.436zm1.691 3.49c.218-.163.327-.38.327-.763 0-.272-.109-.49-.272-.654-.164-.164-.491-.273-.982-.437v2.182c.382-.054.709-.163.927-.327z"/>
</svg>
