<svg xmlns="http://www.w3.org/2000/svg" width="42" height="42" viewBox="0 0 42 42">
    <path fill="#000" fill-rule="nonzero" d="M12.824 6.628c0-2 1.595-3.628 3.553-3.627 1.96 0 3.553 1.627 3.553 3.627 0 2-1.594 3.628-3.553 3.628-1.958 0-3.553-1.627-3.553-3.628zm6.263 0c0-1.525-1.215-2.767-2.71-2.766-1.493 0-2.708 1.241-2.708 2.766 0 1.526 1.215 2.767 2.709 2.767s2.71-1.241 2.71-2.767zm2.424 0c0-2 1.594-3.628 3.553-3.627 1.959 0 3.553 1.627 3.553 3.627 0 2-1.594 3.628-3.553 3.628-1.96 0-3.553-1.627-3.553-3.628zm6.263 0c0-1.525-1.216-2.767-2.71-2.766-1.494 0-2.71 1.241-2.71 2.766 0 1.526 1.216 2.767 2.71 2.767s2.71-1.241 2.71-2.767zM33.751 3c1.958 0 3.552 1.628 3.552 3.628s-1.594 3.628-3.552 3.628c-1.96 0-3.554-1.628-3.554-3.628S31.791 3 33.751 3zm0 6.395c1.493 0 2.708-1.241 2.708-2.767 0-1.525-1.215-2.766-2.708-2.766-1.494 0-2.71 1.241-2.71 2.766 0 1.526 1.216 2.767 2.71 2.767zm3.742 19.47c1.522.388 2.026 2.534.882 3.73-1.563 1.632-4.919 2.907-7.026 4.021-2.67 1.402-5.752 1.872-8.61.776-.041-.014-5.037-1.757-8.723-2.339l.16.969a.43.43 0 0 1-.344.496l-8.513 1.476a.424.424 0 0 1-.487-.353L3.006 26.657a.43.43 0 0 1 .345-.496l8.511-1.476a.422.422 0 0 1 .487.353l.083.502a13.55 13.55 0 0 1 1.981-.805v-9.3h-1.142c-.376 0-.563-.465-.298-.735l3.105-3.17a.428.428 0 0 1 .597 0l3.053 3.117c.343.235.182.788-.235.788H18.34v9.135c.41.135.807.328 1.175.606.004 0 1.714.994 3.585 1.84v-11.58h-1.142c-.375 0-.563-.466-.298-.736l3.105-3.17a.428.428 0 0 1 .597 0l3.053 3.117c.343.235.182.788-.235.788H27.027v12.88c1.15.328 2.954 1.024 3.164 2.218a26.16 26.16 0 0 1 1.596-.697v-14.4h-1.142c-.376 0-.563-.466-.298-.736l3.105-3.17a.415.415 0 0 1 .597 0l3.052 3.117c.343.235.182.788-.235.788h-1.152v13.34c.639-.063 1.248-.048 1.779.09zm-5.83-14.291h.546c.233 0 .422.193.422.43V29.46l2.239-.59V15.005c0-.238.189-.431.422-.431h.545l-2.086-2.13-2.087 2.13zm-8.685 0h.545c.232 0 .421.193.421.43v12.344l2.24.672V15.005c0-.238.188-.431.421-.431h.546l-2.087-2.13-2.086 2.13zm-8.687 0h.546c.233 0 .422.193.422.43v9.332h2.238v-9.331c0-.238.19-.431.422-.431h.546l-2.087-2.13-2.087 2.13zM5.594 37.072l7.68-1.331-1.685-10.135-7.68 1.332 1.685 10.134zm32.178-5.08c.697-.727.393-2.068-.485-2.292-1.968-.51-5.578.99-7.388 1.937-.91.934-2.05 1.412-3.255 1.412-.897 0-1.829-.263-2.73-.796-1.337-.79-3.028-1.036-3.044-1.038a.43.43 0 0 1-.361-.485.424.424 0 0 1 .475-.368c.075.01 1.869.267 3.353 1.146 1.795 1.063 3.648.876 4.97-.488.445-1.012-2.137-1.833-3.196-2.05-2.554-.453-6.873-2.968-7.056-3.075-1.954-1.476-5.002-.227-6.473.532l1.286 7.734c3.782.546 8.934 2.341 9.157 2.42 3.293 1.262 6.385.084 7.937-.731 2.085-1.103 5.382-2.367 6.81-3.858zm-28.584-3.52a.675.675 0 0 1-.668-.682c0-.377.299-.682.668-.682.369 0 .668.305.668.682 0 .377-.299.682-.668.682zm-2.818.529a.675.675 0 0 1-.668-.683c0-.376.299-.682.668-.682.369 0 .668.306.668.682 0 .377-.3.683-.668.683zM16.28 4.75h.285v.23c.325.025.633.139.923.34l-.289.418a1.416 1.416 0 0 0-.634-.263v.853h.013c.34.081.59.191.75.33.16.14.24.34.24.605a.83.83 0 0 1-.276.646c-.183.166-.425.257-.727.272v.326h-.285v-.33a1.909 1.909 0 0 1-1.091-.495l.324-.394c.248.22.504.352.767.394v-.879c-.334-.081-.579-.188-.734-.322-.155-.133-.233-.33-.233-.591 0-.261.09-.475.268-.641.18-.167.413-.257.7-.272V4.75zm0 1.495v-.784a.527.527 0 0 0-.313.12.328.328 0 0 0-.113.254c0 .101.03.182.089.24.06.06.172.116.337.17zm.648.809c-.065-.062-.186-.12-.364-.174v.816a.612.612 0 0 0 .337-.127.33.33 0 0 0 .125-.263.33.33 0 0 0-.098-.252zm8.039-2.304h.283v.23c.325.025.633.139.923.34l-.288.418a1.416 1.416 0 0 0-.635-.263v.853h.014c.34.081.59.191.75.33.16.14.239.34.239.605a.83.83 0 0 1-.275.646c-.183.166-.426.257-.728.272v.326h-.284v-.33a1.909 1.909 0 0 1-1.092-.495l.324-.394c.249.22.505.352.768.394v-.879c-.335-.081-.58-.188-.735-.322-.155-.133-.233-.33-.233-.591 0-.261.09-.475.27-.641.178-.167.412-.257.699-.272V4.75zm0 1.495h-.001v-.784a.526.526 0 0 0-.313.12.328.328 0 0 0-.113.254c0 .101.03.182.089.24.06.06.172.116.338.17zm.648.809c-.066-.062-.187-.12-.364-.174v.816a.612.612 0 0 0 .337-.127.33.33 0 0 0 .124-.263.33.33 0 0 0-.097-.252zm8.335-.727c.34.082.59.192.75.331.16.14.24.34.24.605a.83.83 0 0 1-.276.646c-.183.166-.426.257-.728.272v.326h-.284v-.33a1.909 1.909 0 0 1-1.092-.495l.324-.394c.249.22.505.352.768.394v-.879c-.335-.081-.58-.188-.735-.322-.155-.133-.232-.33-.232-.591 0-.261.09-.475.268-.641.18-.167.413-.257.7-.272V4.75h.284v.23c.325.025.633.139.923.34l-.29.418a1.416 1.416 0 0 0-.634-.263v.852h.014zm-.297-.082v-.784a.526.526 0 0 0-.314.12.328.328 0 0 0-.113.254c0 .101.03.182.09.24.059.06.17.116.337.17zm.62 1.324a.328.328 0 0 0 .125-.263.33.33 0 0 0-.098-.251c-.065-.062-.186-.12-.364-.175v.816a.612.612 0 0 0 .338-.127z"/>
</svg>
