<svg xmlns="http://www.w3.org/2000/svg" width="42" height="42" viewBox="0 0 42 42">
    <path fill="#010101" fill-rule="nonzero" d="M38.455 22.745c.327 0 .545.219.545.546v13.09A2.619 2.619 0 0 1 36.382 39H7.255C4.909 39 3 37.09 3 34.8V14.727c0-.327.218-.545.545-.545h4.91v-2.4C8.455 6.927 11.89 3 16.2 3c4.364 0 7.745 4.036 7.745 8.836v2.4h4.91c.327 0 .545.219.545.546v.982c.327-.055.655-.11.982-.11 2.782 0 5.127 2.564 5.127 5.782v1.31h2.946zm-4.037-1.363c0-2.564-1.8-4.691-4.09-4.691-2.237 0-4.037 2.073-4.037 4.69v1.31h8.127v-1.31zm-24.873-9.6v2.4h13.31v-2.4c0-4.2-2.946-7.691-6.655-7.691-3.71 0-6.655 3.436-6.655 7.69zM4.091 34.8c0 1.69 1.418 3.11 3.164 3.055h15c-.328-.437-.491-.928-.491-1.528v-13.09c0-.328.218-.546.545-.546h2.946v-1.31c0-2.345 1.254-4.363 3.054-5.29v-.818h-4.364v1.036a2.05 2.05 0 0 1 1.582 2.018 2.13 2.13 0 0 1-2.127 2.128 2.13 2.13 0 0 1-2.127-2.128c0-.982.654-1.8 1.582-2.018v-1.036H9.545v1.036a2.05 2.05 0 0 1 1.582 2.018c0 1.2-.927 2.128-2.127 2.128a2.13 2.13 0 0 1-2.127-2.128c0-.982.654-1.8 1.582-2.018v-1.036H4.09V34.8zM9 17.29a1.036 1.036 0 1 0 0 2.074c.6 0 1.036-.491 1.036-1.037 0-.6-.436-1.036-1.036-1.036zm14.4 0a1.036 1.036 0 1 0 0 2.074c.6 0 1.036-.491 1.036-1.037 0-.6-.436-1.036-1.036-1.036zm14.51 19.092V23.836h-2.346v.328c.545.218.981.763.981 1.418 0 .818-.654 1.527-1.527 1.527a1.525 1.525 0 0 1-1.527-1.527c0-.655.382-1.2.982-1.418v-.328h-8.128v.328c.546.218.982.763.982 1.418 0 .818-.654 1.527-1.527 1.527a1.525 1.525 0 0 1-1.527-1.527c0-.655.382-1.2.982-1.418v-.328h-2.4v12.546c0 .818.709 1.527 1.527 1.527h12c.818 0 1.527-.654 1.527-1.527zM25.744 25.145a.47.47 0 0 0-.436.437.43.43 0 0 0 .436.436.43.43 0 0 0 .437-.436.43.43 0 0 0-.437-.437zm9.219 0a.47.47 0 0 0-.437.437.43.43 0 0 0 .437.436.43.43 0 0 0 .436-.436.43.43 0 0 0-.436-.437zm-14.782.928c.273 0 .545.218.545.545 0 .327-.218.546-.545.546H7.909c-.327 0-.545-.219-.545-.546 0-.327.218-.545.545-.545h12.273zm0 3.6c.273 0 .545.218.545.545 0 .327-.218.546-.545.546H7.909c-.327 0-.545-.219-.545-.546 0-.327.218-.545.545-.545h12.273zm0 3.6c.273 0 .545.218.545.545 0 .327-.218.546-.545.546H7.909c-.327 0-.545-.219-.545-.546 0-.327.218-.545.545-.545h12.273zm15-4.037c.327 0 .545.273.545.546 0 .327-.218.545-.545.545h-9.655c-.327 0-.545-.218-.545-.545 0-.327.218-.546.545-.546h9.655zm0 2.728c.327 0 .545.218.545.545 0 .327-.218.546-.545.546h-9.655c-.327 0-.545-.219-.545-.546 0-.327.218-.545.545-.545h9.655zm0 2.672c.327 0 .545.219.545.546 0 .327-.218.545-.545.545h-9.655c-.327 0-.545-.218-.545-.545 0-.327.218-.546.545-.546h9.655z"/>
</svg>
