<svg xmlns="http://www.w3.org/2000/svg" width="42" height="42" viewBox="0 0 42 42">
    <path fill="#000" fill-rule="nonzero" d="M29.685 30.788c1.017 0 1.807.843 1.807 1.856 0 .956-.79 1.8-1.807 1.8-.846 0-1.524-.507-1.75-1.238h-2.37c-.34 0-.565-.225-.565-.562V28.48c-.847.113-1.637.169-2.484.225-.226.056-.451.056-.677.056v6.694c.734.281 1.242.956 1.242 1.744 0 .956-.79 1.8-1.807 1.8-.96 0-1.806-.788-1.806-1.8 0-.844.508-1.519 1.242-1.744v-6.694c-.79-.112-1.637-.112-3.162-.393v5.681c0 .338-.225.563-.564.563h-1.92c-.282.73-.96 1.237-1.75 1.237-.96 0-1.806-.788-1.806-1.8 0-.956.79-1.8 1.807-1.8.846 0 1.524.506 1.75 1.237h1.354v-5.343c-4.29-1.013-8.298-3.319-11.46-6.75a.542.542 0 0 1 0-.788c3.275-3.544 7.396-5.906 11.912-6.862V9.919h-1.806c-.283.731-.96 1.237-1.75 1.237-.96 0-1.807-.787-1.807-1.8 0-.956.79-1.8 1.807-1.8.846 0 1.524.506 1.75 1.238h2.37c.34 0 .565.225.565.562v4.163a34.62 34.62 0 0 1 3.161-.281V6.544c-.734-.281-1.242-.956-1.242-1.744 0-.956.79-1.8 1.807-1.8.96 0 1.806.788 1.806 1.8 0 .844-.508 1.519-1.242 1.744v6.637c.734.113 1.637.113 3.162.394V7.894c0-.338.225-.563.564-.563h1.92c.282-.731.96-1.237 1.75-1.237.96 0 1.806.843 1.806 1.8 0 .956-.79 1.8-1.807 1.8-.846 0-1.524-.507-1.75-1.238h-1.354V13.8c4.29 1.012 8.242 3.319 11.46 6.75a.542.542 0 0 1 0 .787c-3.275 3.544-7.396 5.907-11.912 6.863v3.825h1.806c.283-.731.96-1.237 1.75-1.237zm0-23.513c-.395 0-.733.281-.677.675 0 .337.282.675.677.675a.685.685 0 0 0 .678-.675.685.685 0 0 0-.678-.675zm-16.37 2.813c.395 0 .733-.338.677-.675a.685.685 0 0 0-.677-.676.685.685 0 0 0-.678.676c0 .337.282.675.678.675zm0 24.637c.395 0 .733-.281.677-.675a.685.685 0 0 0-.677-.675.685.685 0 0 0-.678.675c0 .338.282.675.678.675zm8.185-7.144c3.952 0 6.661-3.093 6.661-6.581 0-3.431-2.71-6.581-6.661-6.581-3.952 0-6.661 3.093-6.661 6.581 0 3.431 2.71 6.581 6.661 6.581zM36.855 21c-2.936-3.038-6.492-5.063-10.444-6.019 1.75 1.463 2.88 3.6 2.88 6.019a7.737 7.737 0 0 1-2.88 6.019A21.644 21.644 0 0 0 36.855 21zM21.725 4.125a.685.685 0 0 0-.677.675c0 .338.283.675.678.675a.685.685 0 0 0 .677-.675.685.685 0 0 0-.677-.675zM6.146 21c2.936 3.038 6.492 5.063 10.444 6.019-1.75-1.463-2.88-3.6-2.88-6.019a7.737 7.737 0 0 1 2.88-6.019A21.644 21.644 0 0 0 6.145 21zm15.13 16.875a.685.685 0 0 0 .677-.675.685.685 0 0 0-.678-.675.685.685 0 0 0-.677.675c0 .337.282.675.677.675zm8.41-4.556a.651.651 0 0 0 .678-.675.685.685 0 0 0-.678-.675.685.685 0 0 0-.677.675c0 .337.282.675.677.675zM10.661 4.63c0 .338-.226.563-.564.563H5.129v4.95a.565.565 0 0 1-.564.562c-.34 0-.565-.225-.565-.562V4.63c0-.337.226-.562.565-.562h5.532c.338 0 .564.281.564.562zm0 33.806a.565.565 0 0 1-.564.563H4.565A.565.565 0 0 1 4 38.437v-5.512c0-.338.226-.563.565-.563.282 0 .564.225.564.563v4.95h4.968c.338 0 .564.281.564.563zM38.435 4.07c.34 0 .565.281.565.562v6.075c0 .338-.226.563-.565.563-.338 0-.564-.225-.564-.563V5.194h-5.532c-.339 0-.565-.225-.565-.563 0-.337.226-.562.565-.562h6.096zm0 27.731c.34 0 .565.225.565.563v6.074c0 .338-.226.563-.565.563H32.34c-.339 0-.565-.225-.565-.563 0-.337.226-.562.565-.562h5.532v-5.512c0-.338.226-.563.564-.563zM26.637 19.819c0 .956-.677 1.744-1.524 2.081a3.694 3.694 0 0 1-3.613 2.813c-2.032 0-3.726-1.688-3.726-3.713 0-2.025 1.694-3.712 3.726-3.712.677 0 1.355.168 1.976.562.282-.113.62-.225.96-.225a2.2 2.2 0 0 1 2.201 2.194zM21.5 23.587a2.492 2.492 0 0 0 2.371-1.687c-.903-.225-1.637-1.069-1.637-2.081 0-.45.113-.844.339-1.181-.34-.113-.678-.226-1.073-.226-1.411 0-2.597 1.182-2.597 2.588 0 1.406 1.186 2.587 2.597 2.587zm2.935-2.7c.565 0 1.073-.506 1.073-1.068a1.07 1.07 0 0 0-1.073-1.069 1.07 1.07 0 0 0 0 2.137z"/>
</svg>
