<svg xmlns="http://www.w3.org/2000/svg" width="42" height="42" viewBox="0 0 42 42">
    <path fill="#000" fill-rule="nonzero" d="M38.578 37.168a.42.42 0 0 1 .422.416.42.42 0 0 1-.422.416H3.422A.42.42 0 0 1 3 37.584a.42.42 0 0 1 .422-.416h7.973v-5.566a.42.42 0 0 1 .422-.416c3.487.144 4.5-.325 4.5.416v5.566h1.822V26.63a.42.42 0 0 1 .422-.416h4.078a.42.42 0 0 1 .422.416v10.538h1.823V22.414a.42.42 0 0 1 .421-.416h4.079a.42.42 0 0 1 .421.416v14.754h1.823V17.125a.42.42 0 0 1 .422-.416h4.077a.42.42 0 0 1 .422.416v20.043h2.03zm-26.339 0h3.234v-5.15h-3.234v5.15zm6.744 0h3.234V27.046h-3.234v10.122zm6.744 0h3.235V22.83h-3.235v14.338zm6.745 0h3.233V17.541h-3.233v19.627zM4.955 32.516a1.98 1.98 0 0 1-1.515-1.493c-.362-1.633 1.298-2.947 2.883-2.23.086.04.167.087.246.138l3.533-3.14a1.98 1.98 0 0 1 .19-2.221c.577-.71 1.596-.943 2.486-.54 1.052.475 1.427 1.865.781 2.857-.021.033-.047.063-.07.095l.07.074c.781-.628 1.944-.592 2.661.058L37.538 8.37l-2.452-.216a.418.418 0 0 1-.383-.451.42.42 0 0 1 .457-.378l3.456.304a.422.422 0 0 1 .381.464l-.306 3.394a.42.42 0 0 1-.457.377.418.418 0 0 1-.383-.451l.216-2.396-21.372 17.788c.25.632.197 1.3-.162 1.85a2.028 2.028 0 0 1-2.148.867 1.977 1.977 0 0 1-1.359-2.81l-.163-.175c-.708.399-1.575.334-2.203-.124l-3.52 3.13c.026.044.055.085.077.13.743 1.6-.638 3.195-2.262 2.842zm9.881-6.087c-.356 0-.69.157-.913.432-.228.278-.309.63-.229.99.094.422.444.767.872.86.494.106.992-.096 1.257-.504.45-.691.068-1.778-.987-1.778zm-3.888-2.34a1.151 1.151 0 0 0 .644 1.85 1.19 1.19 0 0 0 1.257-.503c.365-.56.164-1.387-.423-1.652-.57-.257-1.142-.106-1.478.305zm-4.976 5.46c-1-.45-1.913.369-1.707 1.294.094.422.444.767.871.86.957.207 1.761-.718 1.313-1.682a.976.976 0 0 0-.477-.472zm7.884-8.56c-4.75 0-8.616-3.81-8.615-8.494C5.241 7.811 9.106 4 13.856 4s8.616 3.811 8.616 8.495c0 4.684-3.865 8.494-8.616 8.494zm0-16.157c-4.285 0-7.772 3.438-7.771 7.663 0 4.225 3.486 7.662 7.771 7.662s7.772-3.437 7.772-7.662-3.487-7.663-7.772-7.663zm-2.72 9.665c.78.67 1.585 1.069 2.414 1.197v-2.67c-1.052-.247-1.822-.573-2.31-.977-.488-.403-.732-1.002-.732-1.795 0-.794.28-1.443.844-1.947.563-.505 1.295-.78 2.198-.826v-.687h.893v.701c1.023.074 1.99.418 2.902 1.032l-.906 1.266a4.531 4.531 0 0 0-1.996-.798v2.586h.042c1.07.248 1.856.583 2.358 1.005.502.422.753 1.034.753 1.837 0 .802-.288 1.456-.865 1.96-.577.505-1.34.78-2.289.826v.99h-.893v-1.004c-1.274-.128-2.419-.627-3.432-1.5l1.018-1.196zm3.306-1.239v2.477c.447-.045.8-.174 1.061-.385.26-.21.39-.477.39-.798 0-.32-.102-.576-.306-.764-.205-.188-.586-.365-1.145-.53zm-1.953-2.442c.186.18.54.35 1.06.516v-2.38c-.418.037-.746.158-.983.364a.98.98 0 0 0-.356.77c0 .308.093.551.279.73z"/>
</svg>
