<svg xmlns="http://www.w3.org/2000/svg" width="40" height="40" viewBox="0 0 40 40">
    <path fill="#FFF" fill-rule="nonzero" d="M14.77 26.767a3.42 3.42 0 0 1-2.461 3.293v2a.927.927 0 0 1-.922.933.927.927 0 0 1-.921-.933v-2A3.414 3.414 0 0 1 8 26.767a3.414 3.414 0 0 1 2.466-3.294V9.933c0-.515.412-.933.921-.933.51 0 .922.418.922.933v13.54a3.42 3.42 0 0 1 2.461 3.294zm-3.383 1.566c.85 0 1.54-.698 1.54-1.56 0-.861-.69-1.56-1.54-1.56-.85 0-1.54.699-1.54 1.56 0 .862.69 1.56 1.54 1.56zM32 26.767a3.42 3.42 0 0 1-2.461 3.293v2a.936.936 0 0 1-.461.808.911.911 0 0 1-.921 0 .936.936 0 0 1-.461-.808v-2a3.414 3.414 0 0 1-2.466-3.293 3.414 3.414 0 0 1 2.466-3.294V9.933c0-.515.412-.933.921-.933.51 0 .922.418.922.933v13.54A3.42 3.42 0 0 1 32 26.767zm-3.383 1.566c.85 0 1.54-.698 1.54-1.56 0-.861-.69-1.56-1.54-1.56-.85 0-1.54.699-1.54 1.56 0 .862.69 1.56 1.54 1.56zm-11.998-13.1a3.42 3.42 0 0 1 2.462-3.293v-2c0-.515.412-.933.921-.933.51 0 .922.418.922.933v2a3.414 3.414 0 0 1 2.465 3.293 3.414 3.414 0 0 1-2.465 3.294v13.54a.927.927 0 0 1-.922.933.927.927 0 0 1-.921-.933v-13.54a3.42 3.42 0 0 1-2.462-3.294zm3.383-1.566c-.85 0-1.54.698-1.54 1.56 0 .861.69 1.56 1.54 1.56.85 0 1.54-.699 1.54-1.56 0-.862-.69-1.56-1.54-1.56z"/>
</svg>
