<svg xmlns="http://www.w3.org/2000/svg" xmlns:xlink="http://www.w3.org/1999/xlink" width="64" height="64" viewBox="0 0 64 64">
    <defs>
        <circle id="a" cx="30" cy="30" r="30"/>
    </defs>
    <g fill="none" fill-rule="evenodd" transform="translate(2 2)">
        <mask id="b" fill="#fff">
            <use xlink:href="#a"/>
        </mask>
        <use fill="#FFF" stroke="#000" stroke-width="2" xlink:href="#a"/>
        <path fill="#231F20" fill-rule="nonzero" d="M11 50.824c0-1.81.454-3.483 1.362-5.021a10.053 10.053 0 0 1 3.694-3.654 9.98 9.98 0 0 1 5.077-1.347h17.733c1.83 0 3.522.449 5.078 1.347a10.056 10.056 0 0 1 3.694 3.654A9.701 9.701 0 0 1 49 50.824V55h-2.533v-4.176a7.24 7.24 0 0 0-1.024-3.768 7.62 7.62 0 0 0-2.766-2.735 7.446 7.446 0 0 0-3.81-1.013H21.133c-1.38 0-2.65.337-3.81 1.013a7.617 7.617 0 0 0-2.766 2.735 7.24 7.24 0 0 0-1.024 3.768V55H11v-4.176zM24.712 36.47a10.638 10.638 0 0 1-3.843-3.8c-.95-1.594-1.425-3.337-1.425-5.23 0-1.893.475-3.636 1.425-5.23.95-1.594 2.23-2.86 3.843-3.8C26.322 17.47 28.086 17 30 17c1.914 0 3.677.47 5.289 1.41a10.642 10.642 0 0 1 3.842 3.8c.95 1.594 1.425 3.337 1.425 5.23 0 1.893-.475 3.636-1.425 5.23a10.64 10.64 0 0 1-3.842 3.8c-1.612.94-3.375 1.41-5.289 1.41-1.914 0-3.677-.47-5.288-1.41zm9.31-2.161a7.938 7.938 0 0 0 2.924-2.892 7.693 7.693 0 0 0 1.076-3.977c0-1.434-.358-2.76-1.076-3.978a7.935 7.935 0 0 0-2.924-2.892A7.918 7.918 0 0 0 30 19.506c-1.45 0-2.79.355-4.022 1.065a7.932 7.932 0 0 0-2.924 2.891 7.694 7.694 0 0 0-1.076 3.978c0 1.434.358 2.76 1.076 3.978a7.932 7.932 0 0 0 2.924 2.891A7.91 7.91 0 0 0 30 35.374c1.45 0 2.79-.355 4.022-1.065z" mask="url(#b)"/>
    </g>
</svg>
